<svg width="200" height="220" viewBox="0 0 200 220" xmlns="http://www.w3.org/2000/svg">
  <!-- Natural Cordage diagram -->
  <defs>
    <style>
      .fiber { fill: none; stroke: #8B7355; stroke-width: 3; stroke-linecap: round; }
      .twisted { fill: none; stroke: #654321; stroke-width: 5; stroke-linecap: round; }
      .label { fill: #333; font-family: Arial, sans-serif; font-size: 11px; }
      .arrow { fill: none; stroke: #E74C3C; stroke-width: 2; marker-end: url(#arrow); }
    </style>
    <marker id="arrow" markerWidth="10" markerHeight="7" refX="9" refY="3.5" orient="auto">
      <polygon points="0 0, 10 3.5, 0 7" fill="#E74C3C" />
    </marker>
  </defs>
  
  <!-- Individual fibers -->
  <path class="fiber" d="M 40 50 Q 45 70, 50 90" />
  <path class="fiber" d="M 50 50 Q 55 70, 60 90" />
  <path class="fiber" d="M 60 50 Q 65 70, 70 90" />
  
  <!-- Arrow showing twisting -->
  <path class="arrow" d="M 80 70 L 95 70" />
  
  <!-- Two-ply twisted cordage -->
  <path class="twisted" d="M 110 50 Q 105 60, 110 70 Q 115 80, 110 90 Q 105 100, 110 110" />
  <path class="twisted" d="M 115 50 Q 120 60, 115 70 Q 110 80, 115 90 Q 120 100, 115 110" />
  
  <!-- Arrow showing combination -->
  <path class="arrow" d="M 130 80 L 145 80" />
  
  <!-- Final rope (two-ply twisted together) -->
  <path class="twisted" d="M 160 50 Q 155 65, 160 80 Q 165 95, 160 110 Q 155 125, 160 140" stroke-width="7"/>
  
  <!-- Example materials -->
  <rect x="20" y="160" width="160" height="45" fill="#F5F5DC" stroke="#654321" stroke-width="2" rx="5"/>
  <text x="100" y="175" class="label" text-anchor="middle" font-weight="bold">Materials:</text>
  <text x="100" y="188" class="label" text-anchor="middle" font-size="9">Nettle, dogbane, yucca,</text>
  <text x="100" y="199" class="label" text-anchor="middle" font-size="9">inner bark, long grasses</text>
  
  <!-- Labels -->
  <text x="50" y="45" class="label">Fibers</text>
  <text x="110" y="45" class="label">Twist</text>
  <text x="155" y="45" class="label">Rope</text>
  
  <!-- Title -->
  <text x="100" y="20" class="label" text-anchor="middle" font-weight="bold" font-size="13">Natural Cordage</text>
</svg>
