<svg width="200" height="220" viewBox="0 0 200 220" xmlns="http://www.w3.org/2000/svg">
  <!-- Natural Cordage diagram -->
  <marker id="arrow" markerWidth="10" markerHeight="7" refX="9" refY="3.5" orient="auto">
    <polygon points="0 0, 10 3.5, 0 7" fill="#E74C3C" />
  </marker>
  
  <!-- Individual fibers -->
  <path d="M 40 50 Q 45 70, 50 90" fill="none" stroke="#8B7355" strokeWidth="3" strokeLinecap="round" />
  <path d="M 50 50 Q 55 70, 60 90" fill="none" stroke="#8B7355" strokeWidth="3" strokeLinecap="round" />
  <path d="M 60 50 Q 65 70, 70 90" fill="none" stroke="#8B7355" strokeWidth="3" strokeLinecap="round" />
  
  <!-- Arrow showing twisting -->
  <path d="M 80 70 L 95 70" fill="none" stroke="#E74C3C" strokeWidth="2" markerEnd="url(#arrow)" />
  
  <!-- Two-ply twisted cordage -->
  <path d="M 110 50 Q 105 60, 110 70 Q 115 80, 110 90 Q 105 100, 110 110" fill="none" stroke="#654321" strokeWidth="5" strokeLinecap="round" />
  <path d="M 115 50 Q 120 60, 115 70 Q 110 80, 115 90 Q 120 100, 115 110" fill="none" stroke="#654321" strokeWidth="5" strokeLinecap="round" />
  
  <!-- Arrow showing combination -->
  <path d="M 130 80 L 145 80" fill="none" stroke="#E74C3C" strokeWidth="2" markerEnd="url(#arrow)" />
  
  <!-- Final rope (two-ply twisted together) -->
  <path d="M 160 50 Q 155 65, 160 80 Q 165 95, 160 110 Q 155 125, 160 140" fill="none" stroke="#654321" strokeWidth="7"/>
  
  <!-- Example materials -->
  <rect x="20" y="160" width="160" height="45" fill="#F5F5DC" stroke="#654321" strokeWidth="2" rx="5"/>
  <text x="100" y="175" fill="#333" fontFamily="Arial, sans-serif" fontSize="11px" textAnchor="middle" fontWeight="bold">Materials:</text>
  <text x="100" y="188" fill="#333" fontFamily="Arial, sans-serif" fontSize="9px" textAnchor="middle">Nettle, dogbane, yucca,</text>
  <text x="100" y="199" fill="#333" fontFamily="Arial, sans-serif" fontSize="9px" textAnchor="middle">inner bark, long grasses</text>
  
  <!-- Labels -->
  <text x="50" y="45" fill="#333" fontFamily="Arial, sans-serif" fontSize="11px">Fibers</text>
  <text x="110" y="45" fill="#333" fontFamily="Arial, sans-serif" fontSize="11px">Twist</text>
  <text x="155" y="45" fill="#333" fontFamily="Arial, sans-serif" fontSize="11px">Rope</text>
  
  <!-- Title -->
  <text x="100" y="20" fill="#333" fontFamily="Arial, sans-serif" fontSize="13px" textAnchor="middle" fontWeight="bold">Natural Cordage</text>
</svg>
