<svg width="200" height="220" viewBox="0 0 200 220" xmlns="http://www.w3.org/2000/svg">
  <!-- Primitive Mallet diagram -->
  
  <!-- Mallet head (thick branch section) -->
  <ellipse cx="100" cy="70" rx="40" ry="25" fill="#8B4513" stroke="#654321" strokeWidth="2"/>
  <rect x="60" y="55" width="80" height="30" fill="#8B4513" stroke="#654321" strokeWidth="2"/>
  <ellipse cx="100" cy="85" rx="40" ry="25" fill="#8B4513" stroke="#654321" strokeWidth="2"/>
  
  <!-- Handle (straight branch) -->
  <rect x="90" y="85" width="20" height="110" fill="#8B4513" stroke="#654321" strokeWidth="2" rx="5"/>
  <ellipse cx="100" cy="195" rx="10" ry="8" fill="#8B4513" stroke="#654321" strokeWidth="2"/>
  
  <!-- Cordage binding -->
  <path fill="none" stroke="#2F4F2F" strokeWidth="3" d="M 75 75 Q 70 75, 70 85 L 70 95 Q 70 100, 75 100" />
  <path fill="none" stroke="#2F4F2F" strokeWidth="3" d="M 85 75 Q 80 75, 80 85 L 80 95 Q 80 100, 85 100" />
  <path fill="none" stroke="#2F4F2F" strokeWidth="3" d="M 125 75 Q 130 75, 130 85 L 130 95 Q 130 100, 125 100" />
  <path fill="none" stroke="#2F4F2F" strokeWidth="3" d="M 115 75 Q 120 75, 120 85 L 120 95 Q 120 100, 115 100" />
  
  <!-- Labels -->
  <text x="40" y="75" fill="#333" fontFamily="Arial, sans-serif" fontSize="11">Heavy head</text>
  <text x="25" y="130" fill="#333" fontFamily="Arial, sans-serif" fontSize="11">Handle</text>
  <text x="140" y="90" fill="#333" fontFamily="Arial, sans-serif" fontSize="11">Binding</text>
  
  <!-- Title -->
  <text x="100" y="20" fill="#333" fontFamily="Arial, sans-serif" fontSize="13" fontWeight="bold" textAnchor="middle">Primitive Mallet</text>
  <text x="100" y="215" fill="#333" fontFamily="Arial, sans-serif" fontSize="10" textAnchor="middle">(Stone age woodworking)</text>
</svg>
