<svg width="300" height="260" viewBox="0 0 300 260" xmlns="http://www.w3.org/2000/svg">
  <!-- Clove Hitch -->
  <rect width="300" height="260" fill="#FAF5EB" rx="8"/>
  <text x="150" y="22" fill="#5C3A1E" font-family="Arial, sans-serif" font-size="13" font-weight="bold" text-anchor="middle">Clove Hitch</text>
  <text x="150" y="40" fill="#8B5E3C" font-family="Arial, sans-serif" font-size="11" text-anchor="middle">Step 3: Tuck end under last wrap and pull tight</text>
  <line x1="20" y1="46" x2="280" y2="46" stroke="#C4A882" stroke-width="1"/>
  <rect x="130" y="55" width="40" height="180" rx="5" fill="#C4A882" stroke="#8B5E3C" stroke-width="2"/>
  <path d="M 55 125 L 130 125" fill="none" stroke="#8B4513" stroke-width="10" stroke-linecap="round"/>
  <path d="M 130 125 Q 165 125, 170 122 Q 245 115, 245 105 Q 245 90, 130 93 Q 129 93, 129 112" fill="none" stroke="#D2691E" stroke-width="9" stroke-linecap="round"/>
  <path d="M 129 112 Q 165 112, 170 115 Q 205 118, 210 125 Q 212 135, 205 140 L 165 140 Q 135 140, 130 138" fill="none" stroke="#D2691E" stroke-width="9" stroke-linecap="round"/>
  <path d="M 130 138 L 130 145 L 55 145" fill="none" stroke="#D2691E" stroke-width="9" stroke-linecap="round"/>
  <text x="150" y="248" fill="#5C3A1E" font-family="Arial,sans-serif" font-size="12" font-weight="bold" text-anchor="middle">Tuck under — pull both ends</text>
</svg>