<svg width="300" height="260" viewBox="0 0 300 260" xmlns="http://www.w3.org/2000/svg">
  <!-- Round Turn &amp; Two Half Hitches -->
  <rect width="300" height="260" fill="#FAF5EB" rx="8"/>
  <text x="150" y="22" fill="#5C3A1E" font-family="Arial, sans-serif" font-size="13" font-weight="bold" text-anchor="middle">Round Turn &amp; Two Half Hitches</text>
  <text x="150" y="40" fill="#8B5E3C" font-family="Arial, sans-serif" font-size="11" text-anchor="middle">Step 4: Pull tight — secure hitch complete</text>
  <line x1="20" y1="46" x2="280" y2="46" stroke="#C4A882" stroke-width="1"/>
  <rect x="130" y="55" width="40" height="185" rx="5" fill="#C4A882" stroke="#8B5E3C" stroke-width="2"/>
  <path d="M 80 115 Q 80 90, 130 90 Q 170 90, 170 90 Q 220 90, 220 115" fill="none" stroke="#8B4513" stroke-width="8" stroke-linecap="round"/>
  <path d="M 80 115 L 55 120" fill="none" stroke="#8B4513" stroke-width="8" stroke-linecap="round"/>
  <path d="M 220 115 Q 238 115, 238 127 Q 238 137, 226 138 Q 218 138, 215 132" fill="none" stroke="#D2691E" stroke-width="7" stroke-linecap="round"/>
  <path d="M 215 132 Q 213 140, 215 148 Q 218 158, 226 158 Q 238 158, 238 168 Q 238 178, 225 178 L 215 175" fill="none" stroke="#D2691E" stroke-width="7" stroke-linecap="round"/>
  <path d="M 215 175 L 240 185" fill="none" stroke="#D2691E" stroke-width="7" stroke-linecap="round"/>
  <text x="150" y="250" fill="#5C3A1E" font-family="Arial,sans-serif" font-size="12" font-weight="bold" text-anchor="middle">Two half hitches secured</text>
</svg>