<svg width="300" height="260" viewBox="0 0 300 260" xmlns="http://www.w3.org/2000/svg">
  <!-- Round Turn & Two Half Hitches -->
  <rect width="300" height="260" fill="#FAF5EB" rx="8"/>
  <text x="150" y="22" fill="#5C3A1E" font-family="Arial, sans-serif" font-size="13" font-weight="bold" text-anchor="middle">Round Turn & Two Half Hitches</text>
  <text x="150" y="40" fill="#8B5E3C" font-family="Arial, sans-serif" font-size="11" text-anchor="middle">Step 3: Second half hitch below the first</text>
  <line x1="20" y1="46" x2="280" y2="46" stroke="#C4A882" stroke-width="1"/>
  <rect x="130" y="55" width="40" height="185" rx="5" fill="#C4A882" stroke="#8B5E3C" stroke-width="2"/>
  <path d="M 80 120 Q 80 95, 130 95 Q 170 95, 170 95 Q 220 95, 220 120" fill="none" stroke="#8B4513" stroke-width="8" stroke-linecap="round"/>
  <path d="M 80 120 L 60 130" fill="none" stroke="#8B4513" stroke-width="8" stroke-linecap="round"/>
  <path d="M 220 120 Q 240 120, 240 130 Q 240 142, 228 142 Q 218 140, 215 134 L 220 126" fill="none" stroke="#D2691E" stroke-width="7" stroke-linecap="round"/>
  <path d="M 220 142 Q 240 145, 240 157 Q 240 170, 228 170 Q 218 168, 215 162 L 220 154" fill="none" stroke="#D2691E" stroke-width="7" stroke-linecap="round" stroke-dasharray="4,2"/>
  <path d="M 220 154 L 240 155" fill="none" stroke="#D2691E" stroke-width="7" stroke-linecap="round"/>
  <text x="150" y="252" fill="#8B4513" font-family="Arial,sans-serif" font-size="11" text-anchor="middle">Add second half hitch below first</text>
</svg>