<svg width="300" height="260" viewBox="0 0 300 260" xmlns="http://www.w3.org/2000/svg">
  <!-- Round Turn & Two Half Hitches -->
  <rect width="300" height="260" fill="#FAF5EB" rx="8"/>
  <text x="150" y="22" fill="#5C3A1E" font-family="Arial, sans-serif" font-size="13" font-weight="bold" text-anchor="middle">Round Turn & Two Half Hitches</text>
  <text x="150" y="40" fill="#8B5E3C" font-family="Arial, sans-serif" font-size="11" text-anchor="middle">Step 2: First half hitch around standing part</text>
  <line x1="20" y1="46" x2="280" y2="46" stroke="#C4A882" stroke-width="1"/>
  <rect x="130" y="60" width="40" height="180" rx="5" fill="#C4A882" stroke="#8B5E3C" stroke-width="2"/>
  <path d="M 80 130 Q 80 100, 130 100 Q 170 100, 170 100 Q 220 100, 220 140" fill="none" stroke="#8B4513" stroke-width="8" stroke-linecap="round"/>
  <path d="M 80 130 L 60 140" fill="none" stroke="#8B4513" stroke-width="8" stroke-linecap="round"/>
  <path d="M 220 140 Q 240 140, 240 155 Q 240 168, 225 168 Q 215 168, 210 160 Q 205 152, 215 148" fill="none" stroke="#D2691E" stroke-width="8" stroke-linecap="round"/>
  <path d="M 215 148 L 225 145" fill="none" stroke="#D2691E" stroke-width="8" stroke-linecap="round"/>
  <text x="150" y="252" fill="#8B4513" font-family="Arial,sans-serif" font-size="11" text-anchor="middle">Loop over standing part (hitch 1)</text>
</svg>