<svg width="200" height="200" viewBox="0 0 200 200" xmlns="http://www.w3.org/2000/svg">
  <!-- Sheet Bend diagram -->
  <defs>
    <style>
      .rope-thick { fill: none; stroke: #654321; stroke-width: 10; stroke-linecap: round; stroke-linejoin: round; }
      .rope-thin { fill: none; stroke: #8B4513; stroke-width: 7; stroke-linecap: round; stroke-linejoin: round; }
      .label { fill: #333; font-family: Arial, sans-serif; font-size: 12px; }
    </style>
  </defs>
  
  <!-- Thick rope loop -->
  <path class="rope-thick" d="M 80 70 Q 80 90, 95 95 L 145 95 Q 160 95, 160 80 L 160 50" />
  <path class="rope-thick" d="M 80 120 Q 80 100, 95 95" />
  
  <!-- Thin rope threading through -->
  <path class="rope-thin" d="M 40 110 L 75 110 Q 85 110, 90 105 L 100 95" />
  <path class="rope-thin" d="M 100 95 Q 110 85, 125 85 L 145 85 Q 155 85, 157 95 L 157 105 Q 157 115, 145 120 L 110 120 Q 95 120, 90 110 L 85 100" />
  
  <!-- Working end -->
  <path class="rope-thin" d="M 85 100 L 70 90" />
  
  <!-- Labels -->
  <text x="165" y="65" class="label">Thick rope</text>
  <text x="25" y="115" class="label">Thin rope</text>
  
  <!-- Title -->
  <text x="100" y="25" class="label" text-anchor="middle" font-weight="bold" font-size="14">Sheet Bend</text>
</svg>
