<svg width="200" height="200" viewBox="0 0 200 200" xmlns="http://www.w3.org/2000/svg">
  <!-- Square/Reef Knot diagram -->
  
  <!-- Left rope (brown) -->
  <path fill="none" stroke="#8B4513" strokeWidth="8" strokeLinecap="round" strokeLinejoin="round" d="M 30 100 L 70 100 Q 85 100, 90 110 L 95 120" />
  <path fill="none" stroke="#8B4513" strokeWidth="8" strokeLinecap="round" strokeLinejoin="round" d="M 95 120 Q 100 130, 110 130 L 130 130 Q 140 130, 145 120 L 150 110" />
  <path fill="none" stroke="#8B4513" strokeWidth="8" strokeLinecap="round" strokeLinejoin="round" d="M 150 110 Q 155 100, 170 100" />
  
  <!-- Right rope (blue) -->
  <path fill="none" stroke="#4169E1" strokeWidth="8" strokeLinecap="round" strokeLinejoin="round" d="M 30 130 L 70 130 Q 85 130, 90 120 L 95 110" />
  <path fill="none" stroke="#4169E1" strokeWidth="8" strokeLinecap="round" strokeLinejoin="round" d="M 95 110 Q 100 100, 110 100 L 130 100 Q 140 100, 145 110 L 150 120" />
  <path fill="none" stroke="#4169E1" strokeWidth="8" strokeLinecap="round" strokeLinejoin="round" d="M 150 120 Q 155 130, 170 130" />
  
  <!-- Labels -->
  <text x="15" y="95" fill="#333" fontFamily="Arial, sans-serif" fontSize="12">Rope 1</text>
  <text x="15" y="135" fill="#333" fontFamily="Arial, sans-serif" fontSize="12">Rope 2</text>
  
  <!-- Title -->
  <text x="100" y="25" fill="#333" fontFamily="Arial, sans-serif" fontSize="14" fontWeight="bold" textAnchor="middle">Square/Reef Knot</text>
  <text x="100" y="185" fill="#333" fontFamily="Arial, sans-serif" fontSize="11" textAnchor="middle">Right over left, left over right</text>
</svg>
