<svg width="200" height="200" viewBox="0 0 200 200" xmlns="http://www.w3.org/2000/svg">
  <!-- Square/Reef Knot diagram -->
  <defs>
    <style>
      .rope-blue { fill: none; stroke: #4169E1; stroke-width: 8; stroke-linecap: round; stroke-linejoin: round; }
      .rope-brown { fill: none; stroke: #8B4513; stroke-width: 8; stroke-linecap: round; stroke-linejoin: round; }
      .label { fill: #333; font-family: Arial, sans-serif; font-size: 12px; }
    </style>
  </defs>
  
  <!-- Left rope (brown) -->
  <path class="rope-brown" d="M 30 100 L 70 100 Q 85 100, 90 110 L 95 120" />
  <path class="rope-brown" d="M 95 120 Q 100 130, 110 130 L 130 130 Q 140 130, 145 120 L 150 110" />
  <path class="rope-brown" d="M 150 110 Q 155 100, 170 100" />
  
  <!-- Right rope (blue) -->
  <path class="rope-blue" d="M 30 130 L 70 130 Q 85 130, 90 120 L 95 110" />
  <path class="rope-blue" d="M 95 110 Q 100 100, 110 100 L 130 100 Q 140 100, 145 110 L 150 120" />
  <path class="rope-blue" d="M 150 120 Q 155 130, 170 130" />
  
  <!-- Labels -->
  <text x="15" y="95" class="label">Rope 1</text>
  <text x="15" y="135" class="label">Rope 2</text>
  
  <!-- Title -->
  <text x="100" y="25" class="label" text-anchor="middle" font-weight="bold" font-size="14">Square/Reef Knot</text>
  <text x="100" y="185" class="label" text-anchor="middle" font-size="11">Right over left, left over right</text>
</svg>
