<svg width="200" height="220" viewBox="0 0 200 220" xmlns="http://www.w3.org/2000/svg">
  <!-- Taut-Line Hitch diagram -->
  <defs>
    <style>
      .rope { fill: none; stroke: #8B4513; stroke-width: 8; stroke-linecap: round; stroke-linejoin: round; }
      .main-line { fill: none; stroke: #654321; stroke-width: 9; stroke-linecap: round; }
      .label { fill: #333; font-family: Arial, sans-serif; font-size: 11px; }
    </style>
  </defs>
  
  <!-- Main standing line -->
  <path class="main-line" d="M 100 30 L 100 190" />
  
  <!-- Working end wraps around standing line -->
  <path class="rope" d="M 140 80 Q 120 80, 110 90 Q 100 100, 90 100 L 85 100" />
  <path class="rope" d="M 85 100 Q 80 100, 80 110 Q 80 120, 90 120 L 110 120 Q 120 120, 125 130" />
  <path class="rope" d="M 125 130 Q 130 140, 120 145 L 95 145 Q 85 145, 85 155" />
  <path class="rope" d="M 85 155 Q 85 165, 95 165 L 140 165" />
  
  <!-- Labels -->
  <text x="105" y="50" class="label">Standing line</text>
  <text x="145" y="170" class="label">Working end</text>
  <text x="30" y="135" class="label">Adjustable</text>
  <text x="30" y="147" class="label">wraps</text>
  
  <!-- Title -->
  <text x="100" y="20" class="label" text-anchor="middle" font-weight="bold" font-size="13">Taut-Line Hitch</text>
  <text x="100" y="210" class="label" text-anchor="middle" font-size="10">(Adjustable tension)</text>
</svg>
