<svg width="300" height="260" viewBox="0 0 300 260" xmlns="http://www.w3.org/2000/svg">
  <!-- Taut-Line Hitch -->
  <rect width="300" height="260" fill="#FAF5EB" rx="8"/>
  <text x="150" y="22" fill="#5C3A1E" font-family="Arial, sans-serif" font-size="13" font-weight="bold" text-anchor="middle">Taut-Line Hitch</text>
  <text x="150" y="40" fill="#8B5E3C" font-family="Arial, sans-serif" font-size="11" text-anchor="middle">Step 2: Wrap working end twice around standing part</text>
  <line x1="20" y1="46" x2="280" y2="46" stroke="#C4A882" stroke-width="1"/>
  <rect x="125" y="55" width="50" height="30" rx="5" fill="#C4A882" stroke="#8B5E3C" stroke-width="2"/>
  <text x="150" y="75" fill="#5C3A1E" font-family="Arial,sans-serif" font-size="10" text-anchor="middle">Anchor</text>
  <path d="M 150 85 L 150 165" fill="none" stroke="#8B4513" stroke-width="10" stroke-linecap="round"/>
  <path d="M 150 165 Q 190 165, 190 148 Q 190 135, 150 135 Q 130 135, 130 148 Q 130 160, 150 160" fill="none" stroke="#D2691E" stroke-width="8" stroke-linecap="round"/>
  <path d="M 150 160 Q 200 160, 200 142 Q 200 124, 150 124 Q 120 124, 120 140 Q 120 155, 145 158" fill="none" stroke="#D2691E" stroke-width="8" stroke-linecap="round" stroke-dasharray="4,2"/>
  <path d="M 145 158 L 160 175" fill="none" stroke="#D2691E" stroke-width="8" stroke-linecap="round"/>
  <text x="150" y="245" fill="#8B4513" font-family="Arial,sans-serif" font-size="11" text-anchor="middle">Two wraps inside (toward anchor)</text>
</svg>