<svg width="200" height="220" viewBox="0 0 200 220" xmlns="http://www.w3.org/2000/svg">
  <!-- Taut-Line Hitch diagram -->
  
  <!-- Main standing line -->
  <path fill="none" stroke="#654321" strokeWidth="9" strokeLinecap="round" d="M 100 30 L 100 190" />
  
  <!-- Working end wraps around standing line -->
  <path fill="none" stroke="#8B4513" strokeWidth="8" strokeLinecap="round" strokeLinejoin="round" d="M 140 80 Q 120 80, 110 90 Q 100 100, 90 100 L 85 100" />
  <path fill="none" stroke="#8B4513" strokeWidth="8" strokeLinecap="round" strokeLinejoin="round" d="M 85 100 Q 80 100, 80 110 Q 80 120, 90 120 L 110 120 Q 120 120, 125 130" />
  <path fill="none" stroke="#8B4513" strokeWidth="8" strokeLinecap="round" strokeLinejoin="round" d="M 125 130 Q 130 140, 120 145 L 95 145 Q 85 145, 85 155" />
  <path fill="none" stroke="#8B4513" strokeWidth="8" strokeLinecap="round" strokeLinejoin="round" d="M 85 155 Q 85 165, 95 165 L 140 165" />
  
  <!-- Labels -->
  <text x="105" y="50" fill="#333" fontFamily="Arial, sans-serif" fontSize="11">Standing line</text>
  <text x="145" y="170" fill="#333" fontFamily="Arial, sans-serif" fontSize="11">Working end</text>
  <text x="30" y="135" fill="#333" fontFamily="Arial, sans-serif" fontSize="11">Adjustable</text>
  <text x="30" y="147" fill="#333" fontFamily="Arial, sans-serif" fontSize="11">wraps</text>
  
  <!-- Title -->
  <text x="100" y="20" fill="#333" fontFamily="Arial, sans-serif" fontSize="13" fontWeight="bold" textAnchor="middle">Taut-Line Hitch</text>
  <text x="100" y="210" fill="#333" fontFamily="Arial, sans-serif" fontSize="10" textAnchor="middle">(Adjustable tension)</text>
</svg>
