<svg width="300" height="260" viewBox="0 0 300 260" xmlns="http://www.w3.org/2000/svg">
  <!-- Taut-Line Hitch -->
  <rect width="300" height="260" fill="#FAF5EB" rx="8"/>
  <text x="150" y="22" fill="#5C3A1E" font-family="Arial, sans-serif" font-size="13" font-weight="bold" text-anchor="middle">Taut-Line Hitch</text>
  <text x="150" y="40" fill="#8B5E3C" font-family="Arial, sans-serif" font-size="11" text-anchor="middle">Step 3: Add a third wrap outside the first two</text>
  <line x1="20" y1="46" x2="280" y2="46" stroke="#C4A882" stroke-width="1"/>
  <rect x="125" y="55" width="50" height="30" rx="5" fill="#C4A882" stroke="#8B5E3C" stroke-width="2"/>
  <text x="150" y="75" fill="#5C3A1E" font-family="Arial,sans-serif" font-size="10" text-anchor="middle">Anchor</text>
  <path d="M 150 85 L 150 150" fill="none" stroke="#8B4513" stroke-width="10" stroke-linecap="round"/>
  <path d="M 150 150 Q 185 150, 185 135 Q 185 122, 150 122 Q 120 122, 120 135 Q 120 148, 145 150" fill="none" stroke="#D2691E" stroke-width="7" stroke-linecap="round"/>
  <path d="M 150 150 Q 195 150, 195 130 Q 195 112, 150 112 Q 112 112, 112 130 Q 112 146, 145 150" fill="none" stroke="#D2691E" stroke-width="7" stroke-linecap="round" stroke-dasharray="4,2"/>
  <path d="M 145 150 Q 205 165, 205 175 Q 205 190, 150 190 Q 110 190, 110 175 Q 110 162, 145 160" fill="none" stroke="#D2691E" stroke-width="7" stroke-linecap="round"/>
  <path d="M 145 160 L 155 200" fill="none" stroke="#D2691E" stroke-width="7" stroke-linecap="round"/>
  <text x="150" y="245" fill="#8B4513" font-family="Arial,sans-serif" font-size="11" text-anchor="middle">Third wrap below first two</text>
</svg>