<svg width="300" height="260" viewBox="0 0 300 260" xmlns="http://www.w3.org/2000/svg">
  <!-- Trucker's Hitch -->
  <rect width="300" height="260" fill="#FAF5EB" rx="8"/>
  <text x="150" y="22" fill="#5C3A1E" font-family="Arial, sans-serif" font-size="13" font-weight="bold" text-anchor="middle">Trucker's Hitch</text>
  <text x="150" y="40" fill="#8B5E3C" font-family="Arial, sans-serif" font-size="11" text-anchor="middle">Step 4: Tie off with two half hitches to lock</text>
  <line x1="20" y1="46" x2="280" y2="46" stroke="#C4A882" stroke-width="1"/>
  <rect x="60" y="55" width="180" height="22" rx="5" fill="#C4A882" stroke="#8B5E3C" stroke-width="2"/>
  <rect x="60" y="210" width="180" height="22" rx="5" fill="#C4A882" stroke="#8B5E3C" stroke-width="2"/>
  <path d="M 100 77 L 100 140" fill="none" stroke="#8B4513" stroke-width="10" stroke-linecap="round"/>
  <rect x="82" y="140" width="36" height="30" rx="6" fill="none" stroke="#8B4513" stroke-width="8"/>
  <path d="M 100 170 Q 100 192, 135 192 Q 160 192, 160 175 Q 160 162, 145 160 Q 130 158, 128 153" fill="none" stroke="#D2691E" stroke-width="8" stroke-linecap="round"/>
  <path d="M 128 153 L 125 142 Q 123 135, 100 142" fill="none" stroke="#D2691E" stroke-width="7" stroke-linecap="round"/>
  <path d="M 100 142 Q 90 135, 88 145 Q 86 155, 93 158 Q 100 160, 104 148" fill="none" stroke="#D2691E" stroke-width="7" stroke-linecap="round"/>
  <text x="150" y="248" fill="#5C3A1E" font-family="Arial,sans-serif" font-size="11" font-weight="bold" text-anchor="middle">Half hitches lock the tension</text>
</svg>